# xmcd CD database file
# 
# Track frame offsets:
# 	150
# 	27745
# 	46467
# 	64792
# 	85600
# 	102912
# 	128415
# 	156007
# 	175250
# 	188160
# 	217142
# 	239305
# 	263387
# 	281412
# 	300715
# 	313727
# 	326415
# 
# Disc length: 4558 seconds
# 
# Submitted via: Nero 5.5.6.9
# 
# Revision: 0
# Processed by: cddbd v1.4PL0 Copyright (c) Steve Scherf et al.
#
DISCID=e611cc11
DTITLE=Snooks Eaglin - Soul's Edge
DYEAR=1900
DGENRE=
TTITLE0=Josephine
TTITLE1=Show me the way back home
TTITLE2=Ling ting tong
TTITLE3=Aw' some funk
TTITLE4=I'm not ashamed
TTITLE5=Nine pound steel
TTITLE6=Answer now
TTITLE7=Skinny minnie
TTITLE8=Thrill on the hill
TTITLE9=You and me
TTITLE10=I went to the mardi
TTITLE11=Talk to me
TTITLE12=Mama and papa
TTITLE13=God will take care
TTITLE14=Brown alert
TTITLE15=Drive her home
TTITLE16=Tipitina
EXTD=
EXTT0=
EXTT1=
EXTT2=
EXTT3=
EXTT4=
EXTT5=
EXTT6=
EXTT7=
EXTT8=
EXTT9=
EXTT10=
EXTT11=
EXTT12=
EXTT13=
EXTT14=Bonus tracks
EXTT15=Bonus tracks
EXTT16=Bonus tracks
PLAYORDER=
